<svg xmlns="http://www.w3.org/2000/svg" width="22.002" height="31.001" viewBox="0 0 22.002 31.001">
  <path id="Forma_1" data-name="Forma 1" d="M970.89,988.3l-2.509-3.774a.635.635,0,0,0-1.062,0L964.81,988.3a.667.667,0,0,0-.036.674.64.64,0,0,0,.567.348h1.238a6.853,6.853,0,0,1-5.083,4.613V979.466h1.995a1.018,1.018,0,0,0,0-2.036h-1.028a3.73,3.73,0,0,0,1.176-2.718,3.64,3.64,0,1,0-7.279,0,3.728,3.728,0,0,0,1.176,2.718h-1.027a1.018,1.018,0,0,0,0,2.036H958.5v14.465a6.853,6.853,0,0,1-5.084-4.613h1.239a.64.64,0,0,0,.567-.348.667.667,0,0,0-.036-.674l-2.509-3.774a.635.635,0,0,0-1.062,0L949.11,988.3a.667.667,0,0,0-.036.674.64.64,0,0,0,.567.348h1.35a11.077,11.077,0,0,0,6.779,8.238l-.249.312a.665.665,0,0,0-.038.774l1.981,3.062a.635.635,0,0,0,1.071,0l1.981-3.062a.664.664,0,0,0-.038-.774l-.249-.312a11.076,11.076,0,0,0,6.78-8.238h1.35a.64.64,0,0,0,.567-.348A.667.667,0,0,0,970.89,988.3ZM960,973.034a1.679,1.679,0,1,1-1.645,1.678A1.664,1.664,0,0,1,960,973.034Z" transform="translate(-948.999 -970.998)" fill="#e74c3c"/>
</svg>
