<?xml version="1.0" encoding="iso-8859-1"?>
<!-- Generator: Adobe Illustrator 19.0.0, SVG Export Plug-In . SVG Version: 6.00 Build 0)  -->
<svg version="1.1" id="Capa_1" xmlns="http://www.w3.org/2000/svg" xmlns:xlink="http://www.w3.org/1999/xlink" x="0px" y="0px"
	 viewBox="0 0 490.405 490.405" style="enable-background:new 0 0 490.405 490.405;" xml:space="preserve">
<g>
	<path style="fill:#607D8B;" d="M18.098,274.141L245.213,47.005l227.115,227.136c4.237,4.093,10.99,3.975,15.083-0.262
		c3.993-4.134,3.993-10.687,0-14.821L252.744,24.392c-4.165-4.164-10.917-4.164-15.083,0L2.994,259.059
		c-4.093,4.237-3.975,10.99,0.262,15.083c4.134,3.992,10.687,3.992,14.82,0H18.098z"/>
	<path style="fill:#607D8B;" d="M252.765,216.371c-4.165-4.164-10.917-4.164-15.083,0L3.016,451.037
		c-4.093,4.237-3.976,10.99,0.262,15.083c4.134,3.993,10.687,3.993,14.821,0l227.115-227.115l227.115,227.136
		c4.237,4.093,10.99,3.976,15.083-0.261c3.993-4.134,3.993-10.688,0-14.821L252.765,216.371z"/>
</g>
<g>
</g>
<g>
</g>
<g>
</g>
<g>
</g>
<g>
</g>
<g>
</g>
<g>
</g>
<g>
</g>
<g>
</g>
<g>
</g>
<g>
</g>
<g>
</g>
<g>
</g>
<g>
</g>
<g>
</g>
</svg>
